<?xml version="1.0" standalone="no"?>
<!DOCTYPE svg PUBLIC "-//W3C//DTD SVG 1.1//EN" "http://www.w3.org/Graphics/SVG/1.1/DTD/svg11.dtd">
<svg width="100%" height="100%" viewBox="0 0 143 196" version="1.1" xmlns="http://www.w3.org/2000/svg" xmlns:xlink="http://www.w3.org/1999/xlink" xml:space="preserve" style="fill-rule:evenodd;clip-rule:evenodd;stroke-linejoin:round;stroke-miterlimit:1.41421;">
    <g transform="matrix(1,0,0,1,-324.175,-54.3628)">
        <g transform="matrix(0.922275,0,0,1.07488,-2.33925,-52.3981)">
            <path d="M467.981,102.522C468.273,102.562 468.555,102.409 468.637,102.166C468.72,101.922 468.578,101.663 468.306,101.563C463.25,99.821 454.353,97.795 445.732,101.057C426.292,108.414 413.512,137.788 421.187,150.551C426.631,159.605 435.094,168.294 445.658,168.294C456.223,168.294 451.834,153.746 447.842,143.964C430.679,101.907 456.952,101.175 467.981,102.522Z" style="fill:rgb(141,190,61);"/>
        </g>
        <g transform="matrix(0.922275,0,0,1.07488,-2.33925,-52.3981)">
            <path d="M432.92,144.798C432.92,144.798 432.92,144.798 432.92,144.798C456.655,144.282 455.427,121.9 480.907,130.877C501.635,138.18 508.42,165.754 508.42,188.703C508.42,230.171 473.831,263.838 431.226,263.838C388.621,263.838 354.031,230.171 354.031,188.703C354.031,165.484 361.028,140.65 381.919,132.979C400.273,126.241 414.174,145.206 432.92,144.798Z" style="fill:rgb(255,0,25);"/>
        </g>
        <g transform="matrix(-0.925719,0,0,1.35716,792.123,-127.546)">
            <path d="M398.604,215.222C417.674,215.222 434.367,213.737 439.567,229.889C444.789,246.109 446.459,280.757 396,276.71C369.001,274.545 350.47,224.907 353.35,208.094C353.35,208.094 353.35,208.094 353.35,208.094C356.541,189.467 379.535,215.222 398.604,215.222Z" style="fill:rgb(255,0,25);"/>
        </g>
        <g transform="matrix(0.925719,0,0,1.35716,-1.79572,-126.28)">
            <path d="M398.604,215.222C417.674,215.222 434.367,213.737 439.567,229.889C444.789,246.109 446.459,280.757 396,276.71C369.001,274.545 350.47,224.907 353.35,208.094C353.35,208.094 353.35,208.094 353.35,208.094C356.541,189.467 379.535,215.222 398.604,215.222Z" style="fill:rgb(255,0,25);"/>
        </g>
        <g transform="matrix(0.195418,0.0977284,0.10581,-0.287388,251.027,192.775)">
            <path d="M316.283,246.867C282.419,302.185 261.162,322.282 274.284,379.133C279.153,400.228 294.176,414.525 318.677,414.525C343.178,414.525 385.096,387.877 363.071,379.133C363.071,379.133 363.07,379.133 363.07,379.132C323.365,363.37 306.24,330.771 316.283,246.867Z" style="fill:white;"/>
        </g>
    </g>
</svg>
